STARTFONT 2.1
FONT -HP-Mincho-Bold-R-Normal--24-173-100-100-C-120-JISX0201.1976-0
SIZE 17 100 100
FONTBOUNDINGBOX 12 24 0 -2

STARTPROPERTIES 23
FONTNAME_REGISTRY ""
FOUNDRY "HP"
FAMILY_NAME "Mincho"
WEIGHT_NAME "Bold"
SLANT "R"
SETWIDTH_NAME "Normal"
ADD_STYLE_NAME ""
PIXEL_SIZE 24
POINT_SIZE 173
RESOLUTION_X 100
RESOLUTION_Y 100
SPACING "C"
AVERAGE_WIDTH 120
CHARSET_REGISTRY "JISX0201.1976"
CHARSET_ENCODING "0"
COPYRIGHT "Copyright (c) 1994 Hewlett-Packard Company. Copyright 1994 by Bridge Inc."
_HP_ASXVERSION "@(#) ASX 3.00 $Revision: 13.9 $ minB24a"
WEIGHT 10
X_HEIGHT 22
QUAD_WIDTH 12
DEFAULT_CHAR 32
FONT_DESCENT 2
FONT_ASCENT 22
ENDPROPERTIES

CHARS 256

STARTCHAR onx0
ENCODING 0
SWIDTH 500 0
DWIDTH 12 0
BBX 12 24 0 -2
BITMAP
0000
0000
4200
4200
6200
5200
4A00
4600
4200
4200
4200
0000
0420
0420
0420
0420
0420
0420
0420
0420
03C0
0000
0000
0000
ENDCHAR

STARTCHAR onx1
ENCODING 1
SWIDTH 500 0
DWIDTH 12 0
BBX 12 24 0 -2
BITMAP
0000
0000
3C00
4200
4000
4000
3C00
0200
0200
4200
3C00
0000
0420
0420
0420
0420
07E0
0420
0420
0420
0420
0000
0000
0000
ENDCHAR

STARTCHAR onx2
ENCODING 2
SWIDTH 500 0
DWIDTH 12 0
BBX 12 24 0 -2
BITMAP
0000
0000
3C00
4200
4000
4000
3C00
0200
0200
4200
3C00
0000
0420
0420
0240
0180
0180
0180
0240
0420
0420
0000
0000
0000
ENDCHAR

STARTCHAR onx3
ENCODING 3
SWIDTH 500 0
DWIDTH 12 0
BBX 12 24 0 -2
BITMAP
0000
0000
7E00
4000
4000
4000
7C00
4000
4000
4000
7E00
0000
0420
0420
0240
0180
0180
0180
0240
0420
0420
0000
0000
0000
ENDCHAR

STARTCHAR onx4
ENCODING 4
SWIDTH 500 0
DWIDTH 12 0
BBX 12 24 0 -2
BITMAP
0000
0000
7E00
4000
4000
4000
7C00
4000
4000
4000
7E00
0000
0FE0
0100
0100
0100
0100
0100
0100
0100
0100
0000
0000
0000
ENDCHAR

STARTCHAR onx5
ENCODING 5
SWIDTH 500 0
DWIDTH 12 0
BBX 12 24 0 -2
BITMAP
0000
0000
7E00
4000
4000
4000
7C00
4000
4000
4000
7E00
0000
0780
0840
0840
0840
0840
0A40
0940
08C0
07A0
0000
0000
0000
ENDCHAR

STARTCHAR onx6
ENCODING 6
SWIDTH 500 0
DWIDTH 12 0
BBX 12 24 0 -2
BITMAP
0000
0000
1800
1800
2400
2400
4200
7E00
4200
4200
4200
0000
0420
0440
0480
0500
0600
0500
0480
0440
0420
0000
0000
0000
ENDCHAR

STARTCHAR onx7
ENCODING 7
SWIDTH 500 0
DWIDTH 12 0
BBX 12 24 0 -2
BITMAP
0000
0000
0000
0600
0900
0900
1080
1080
1080
1080
1080
2040
2040
2040
4020
4020
FFF0
0600
0900
0900
0600
0000
0000
0000
ENDCHAR

STARTCHAR onx8
ENCODING 8
SWIDTH 500 0
DWIDTH 12 0
BBX 12 24 0 -2
BITMAP
0000
0000
7C00
2200
2200
2200
3C00
2200
2200
2200
7C00
0000
03C0
0420
0400
0400
03C0
0020
0020
0420
03C0
0000
0000
0000
ENDCHAR

STARTCHAR onx9
ENCODING 9
SWIDTH 500 0
DWIDTH 12 0
BBX 12 24 0 -2
BITMAP
0000
0000
4200
4200
4200
4200
7E00
4200
4200
4200
4200
0000
0FE0
0100
0100
0100
0100
0100
0100
0100
0100
0000
0000
0000
ENDCHAR

STARTCHAR onx10
ENCODING 10
SWIDTH 500 0
DWIDTH 12 0
BBX 12 24 0 -2
BITMAP
0000
0000
4000
4000
4000
4000
4000
4000
4000
4000
7E00
0000
07E0
0400
0400
0400
07C0
0400
0400
0400
0400
0000
0000
0000
ENDCHAR

STARTCHAR onx11
ENCODING 11
SWIDTH 500 0
DWIDTH 12 0
BBX 12 24 0 -2
BITMAP
0000
0000
4200
4200
4200
4200
2400
2400
2400
1800
1800
0000
0FE0
0100
0100
0100
0100
0100
0100
0100
0100
0000
0000
0000
ENDCHAR

STARTCHAR onx12
ENCODING 12
SWIDTH 500 0
DWIDTH 12 0
BBX 12 24 0 -2
BITMAP
0000
0000
7E00
4000
4000
4000
7C00
4000
4000
4000
4000
0000
0FC0
0800
0800
0800
0F80
0800
0800
0800
0800
0000
0000
0000
ENDCHAR

STARTCHAR onx13
ENCODING 13
SWIDTH 500 0
DWIDTH 12 0
BBX 12 24 0 -2
BITMAP
0000
0000
3C00
4200
4200
4000
4000
4000
4000
4200
3C00
0000
07C0
0420
0420
0420
07C0
0500
0480
0440
0420
0000
0000
0000
ENDCHAR

STARTCHAR onx14
ENCODING 14
SWIDTH 500 0
DWIDTH 12 0
BBX 12 24 0 -2
BITMAP
0000
0000
3C00
4200
4000
4000
3C00
0200
0200
4200
3C00
0000
03C0
0420
0420
0420
0420
0420
0420
0420
03C0
0000
0000
0000
ENDCHAR

STARTCHAR onx15
ENCODING 15
SWIDTH 500 0
DWIDTH 12 0
BBX 12 24 0 -2
BITMAP
0000
0000
3C00
4200
4000
4000
3C00
0200
0200
4200
3C00
0000
0380
0100
0100
0100
0100
0100
0100
0100
0380
0000
0000
0000
ENDCHAR

STARTCHAR onx16
ENCODING 16
SWIDTH 500 0
DWIDTH 12 0
BBX 12 24 0 -2
BITMAP
0000
0000
7800
4400
4200
4200
4200
4200
4200
4400
7800
0000
0400
0400
0400
0400
0400
0400
0400
0400
07E0
0000
0000
0000
ENDCHAR

STARTCHAR onx17
ENCODING 17
SWIDTH 500 0
DWIDTH 12 0
BBX 12 24 0 -2
BITMAP
0000
0000
7800
4400
4200
4200
4200
4200
4200
4400
7800
0000
0080
0180
0280
0080
0080
0080
0080
0080
03E0
0000
0000
0000
ENDCHAR

STARTCHAR onx18
ENCODING 18
SWIDTH 500 0
DWIDTH 12 0
BBX 12 24 0 -2
BITMAP
0000
0000
7800
4400
4200
4200
4200
4200
4200
4400
7800
0000
03C0
0420
0420
0040
0080
0100
0200
0400
07E0
0000
0000
0000
ENDCHAR

STARTCHAR onx19
ENCODING 19
SWIDTH 500 0
DWIDTH 12 0
BBX 12 24 0 -2
BITMAP
0000
0000
7800
4400
4200
4200
4200
4200
4200
4400
7800
0000
03C0
0420
0020
0020
01C0
0020
0020
0420
03C0
0000
0000
0000
ENDCHAR

STARTCHAR onx20
ENCODING 20
SWIDTH 500 0
DWIDTH 12 0
BBX 12 24 0 -2
BITMAP
0000
0000
7800
4400
4200
4200
4200
4200
4200
4400
7800
0000
0080
0180
0280
0480
0880
0880
0FC0
0080
0080
0000
0000
0000
ENDCHAR

STARTCHAR onx21
ENCODING 21
SWIDTH 500 0
DWIDTH 12 0
BBX 12 24 0 -2
BITMAP
0000
0000
4200
4200
6200
5200
4A00
4600
4200
4200
4200
0000
0420
0440
0480
0500
0600
0500
0480
0440
0420
0000
0000
0000
ENDCHAR

STARTCHAR onx22
ENCODING 22
SWIDTH 500 0
DWIDTH 12 0
BBX 12 24 0 -2
BITMAP
0000
0000
3C00
4200
4000
4000
3C00
0200
0200
4200
3C00
0000
0820
0440
0280
0100
0100
0100
0100
0100
0100
0000
0000
0000
ENDCHAR

STARTCHAR onx23
ENCODING 23
SWIDTH 500 0
DWIDTH 12 0
BBX 12 24 0 -2
BITMAP
0000
0000
7E00
4000
4000
4000
7C00
4000
4000
4000
7E00
0000
07C0
0220
0220
0220
03C0
0220
0220
0220
07C0
0000
0000
0000
ENDCHAR

STARTCHAR onx24
ENCODING 24
SWIDTH 500 0
DWIDTH 12 0
BBX 12 24 0 -2
BITMAP
0000
0000
3C00
4200
4200
4000
4000
4000
4000
4200
3C00
0000
0420
0420
0620
0520
04A0
0460
0420
0420
0420
0000
0000
0000
ENDCHAR

STARTCHAR onx25
ENCODING 25
SWIDTH 500 0
DWIDTH 12 0
BBX 12 24 0 -2
BITMAP
0000
0000
7E00
4000
4000
4000
7C00
4000
4000
4000
7E00
0000
0440
0440
06C0
06C0
0540
0540
0440
0440
0440
0000
0000
0000
ENDCHAR

STARTCHAR onx26
ENCODING 26
SWIDTH 500 0
DWIDTH 12 0
BBX 12 24 0 -2
BITMAP
0000
0000
3C00
4200
4000
4000
3C00
0200
0200
4200
3C00
0000
07C0
0220
0220
0220
03C0
0220
0220
0220
07C0
0000
0000
0000
ENDCHAR

STARTCHAR onx27
ENCODING 27
SWIDTH 500 0
DWIDTH 12 0
BBX 12 24 0 -2
BITMAP
0000
0000
7E00
4000
4000
4000
7C00
4000
4000
4000
7E00
0000
03C0
0420
0420
0400
0400
0400
0400
0420
03C0
0000
0000
0000
ENDCHAR

STARTCHAR onx28
ENCODING 28
SWIDTH 500 0
DWIDTH 12 0
BBX 12 24 0 -2
BITMAP
0000
0000
7E00
4000
4000
4000
7C00
4000
4000
4000
4000
0000
03C0
0420
0400
0400
03C0
0020
0020
0420
03C0
0000
0000
0000
ENDCHAR

STARTCHAR onx29
ENCODING 29
SWIDTH 500 0
DWIDTH 12 0
BBX 12 24 0 -2
BITMAP
0000
0000
3C00
4200
4000
4000
4000
4E00
4200
4200
3C00
0000
03C0
0420
0400
0400
03C0
0020
0020
0420
03C0
0000
0000
0000
ENDCHAR

STARTCHAR onx30
ENCODING 30
SWIDTH 500 0
DWIDTH 12 0
BBX 12 24 0 -2
BITMAP
0000
0000
7C00
4200
4200
4200
7C00
5000
4800
4400
4200
0000
03C0
0420
0400
0400
03C0
0020
0020
0420
03C0
0000
0000
0000
ENDCHAR

STARTCHAR onx31
ENCODING 31
SWIDTH 500 0
DWIDTH 12 0
BBX 12 24 0 -2
BITMAP
0000
0000
4200
4200
4200
4200
4200
4200
4200
4200
3C00
0000
03C0
0420
0400
0400
03C0
0020
0020
0420
03C0
0000
0000
0000
ENDCHAR

STARTCHAR jisx0201_20
ENCODING 32
SWIDTH 480 0
DWIDTH 12 0
BBX 12 24 0 -2
BITMAP
0000
0000
0000
0000
0000
0000
0000
0000
0000
0000
0000
0000
0000
0000
0000
0000
0000
0000
0000
0000
0000
0000
0000
0000
ENDCHAR

STARTCHAR jisx0201_21
ENCODING 33
SWIDTH 480 0
DWIDTH 12 0
BBX 12 24 0 -2
BITMAP
0000
0000
0300
0780
0780
0780
0780
0780
0780
0780
0780
0780
0300
0300
0300
0300
0000
0780
0780
0780
0780
0000
0000
0000
ENDCHAR

STARTCHAR jisx0201_22
ENCODING 34
SWIDTH 480 0
DWIDTH 12 0
BBX 12 24 0 -2
BITMAP
1980
3BC0
3BC0
3FC0
1DC0
3B80
3300
0000
0000
0000
0000
0000
0000
0000
0000
0000
0000
0000
0000
0000
0000
0000
0000
0000
ENDCHAR

STARTCHAR jisx0201_23
ENCODING 35
SWIDTH 480 0
DWIDTH 12 0
BBX 12 24 0 -2
BITMAP
0000
0000
0660
0660
0660
0660
0660
3FF0
3FF0
3FF0
0CC0
0CC0
0CC0
7FF0
7FF0
7FF0
1980
1980
1980
1980
1980
0000
0000
0000
ENDCHAR

STARTCHAR jisx0201_24
ENCODING 36
SWIDTH 480 0
DWIDTH 12 0
BBX 12 24 0 -2
BITMAP
0600
0600
1EC0
3FC0
75E0
76E0
7660
7660
7600
7E00
3F00
1FC0
07E0
05F0
06F0
6670
6670
7670
7EF0
3FE0
2FC0
0600
0600
0000
ENDCHAR

STARTCHAR jisx0201_25
ENCODING 37
SWIDTH 480 0
DWIDTH 12 0
BBX 12 24 0 -2
BITMAP
0000
0000
3C60
7E60
6EE0
6EE0
6EC0
6FC0
6DC0
6F80
7F80
3B70
06F0
07B0
0DB0
0DB0
0DB0
1DB0
1DB0
19F0
18F0
0000
0000
0000
ENDCHAR

STARTCHAR jisx0201_26
ENCODING 38
SWIDTH 480 0
DWIDTH 12 0
BBX 12 24 0 -2
BITMAP
0000
0000
1F00
3F80
3B80
3B80
3B80
3B80
1F00
1F00
0E00
3EF0
37F0
7760
7360
73E0
71E0
71F0
78D0
3FF0
1F70
0000
0000
0000
ENDCHAR

STARTCHAR jisx0201_27
ENCODING 39
SWIDTH 480 0
DWIDTH 12 0
BBX 12 24 0 -2
BITMAP
0600
0F00
0F00
0F00
0700
0E00
0C00
0000
0000
0000
0000
0000
0000
0000
0000
0000
0000
0000
0000
0000
0000
0000
0000
0000
ENDCHAR

STARTCHAR jisx0201_28
ENCODING 40
SWIDTH 480 0
DWIDTH 12 0
BBX 12 24 0 -2
BITMAP
0070
00F0
01E0
01C0
03C0
0380
0380
0780
0700
0700
0700
0700
0700
0700
0700
0780
0380
0380
03C0
01C0
01E0
00F0
0070
0000
ENDCHAR

STARTCHAR jisx0201_29
ENCODING 41
SWIDTH 480 0
DWIDTH 12 0
BBX 12 24 0 -2
BITMAP
3800
3C00
1E00
0E00
0F00
0700
0700
0780
0380
0380
0380
0380
0380
0380
0380
0780
0700
0700
0F00
0E00
1E00
3C00
3800
0000
ENDCHAR

STARTCHAR jisx0201_2A
ENCODING 42
SWIDTH 480 0
DWIDTH 12 0
BBX 12 24 0 -2
BITMAP
0000
0000
0000
0000
0700
0700
0700
7770
77F0
7EF0
3FE0
0F80
3FE0
7FF0
76F0
7770
0700
0700
0700
0000
0000
0000
0000
0000
ENDCHAR

STARTCHAR jisx0201_2B
ENCODING 43
SWIDTH 480 0
DWIDTH 12 0
BBX 12 24 0 -2
BITMAP
0000
0000
0000
0000
0000
0700
0700
0700
0700
0700
7FF0
7FF0
7FF0
0700
0700
0700
0700
0700
0000
0000
0000
0000
0000
0000
ENDCHAR

STARTCHAR jisx0201_2C
ENCODING 44
SWIDTH 480 0
DWIDTH 12 0
BBX 12 24 0 -2
BITMAP
0000
0000
0000
0000
0000
0000
0000
0000
0000
0000
0000
0000
0000
0000
0000
0000
0600
0F00
0F00
0F00
0700
0E00
0C00
0000
ENDCHAR

STARTCHAR jisx0201_2D
ENCODING 45
SWIDTH 480 0
DWIDTH 12 0
BBX 12 24 0 -2
BITMAP
0000
0000
0000
0000
0000
0000
0000
0000
0000
0000
7FF0
7FF0
7FF0
0000
0000
0000
0000
0000
0000
0000
0000
0000
0000
0000
ENDCHAR

STARTCHAR jisx0201_2E
ENCODING 46
SWIDTH 480 0
DWIDTH 12 0
BBX 12 24 0 -2
BITMAP
0000
0000
0000
0000
0000
0000
0000
0000
0000
0000
0000
0000
0000
0000
0000
0000
0000
0700
0F80
0F80
0700
0000
0000
0000
ENDCHAR

STARTCHAR jisx0201_2F
ENCODING 47
SWIDTH 480 0
DWIDTH 12 0
BBX 12 24 0 -2
BITMAP
0010
0030
0030
0070
0070
00E0
00E0
01C0
01C0
0380
0380
0700
0700
0E00
0E00
1C00
1C00
3800
3800
7000
7000
6000
6000
0000
ENDCHAR

STARTCHAR jisx0201_30
ENCODING 48
SWIDTH 480 0
DWIDTH 12 0
BBX 12 24 0 -2
BITMAP
0000
0000
0FC0
1FE0
3CF0
3870
3870
3870
3870
3870
3870
3870
3870
3870
3870
3870
3870
3870
3CF0
1FE0
0FC0
0000
0000
0000
ENDCHAR

STARTCHAR jisx0201_31
ENCODING 49
SWIDTH 480 0
DWIDTH 12 0
BBX 12 24 0 -2
BITMAP
0000
0000
0700
0F00
1F00
3F00
3700
0700
0700
0700
0700
0700
0700
0700
0700
0700
0700
0700
0700
3FE0
3FE0
0000
0000
0000
ENDCHAR

STARTCHAR jisx0201_32
ENCODING 50
SWIDTH 480 0
DWIDTH 12 0
BBX 12 24 0 -2
BITMAP
0000
0000
0F80
1FC0
3DE0
38E0
38E0
38E0
38E0
01E0
01C0
03C0
0780
0F00
0E00
1C60
1C60
3860
3FE0
3FE0
3FE0
0000
0000
0000
ENDCHAR

STARTCHAR jisx0201_33
ENCODING 51
SWIDTH 480 0
DWIDTH 12 0
BBX 12 24 0 -2
BITMAP
0000
0000
0F80
1FC0
3DE0
38E0
38E0
38E0
00E0
01E0
0FC0
0FE0
00F0
0070
0070
3870
3870
3870
3CF0
1FE0
0FC0
0000
0000
0000
ENDCHAR

STARTCHAR jisx0201_34
ENCODING 52
SWIDTH 480 0
DWIDTH 12 0
BBX 12 24 0 -2
BITMAP
0000
0000
01C0
01C0
03C0
03C0
07C0
07C0
0DC0
0DC0
1DC0
1DC0
39C0
39C0
71C0
7FF0
7FF0
01C0
01C0
07F0
07F0
0000
0000
0000
ENDCHAR

STARTCHAR jisx0201_35
ENCODING 53
SWIDTH 480 0
DWIDTH 12 0
BBX 12 24 0 -2
BITMAP
0000
0000
1FF0
1FF0
1FE0
1800
1800
1800
1FC0
1FE0
1CF0
1870
1870
0070
0070
3870
3870
3870
3CF0
1FE0
0FC0
0000
0000
0000
ENDCHAR

STARTCHAR jisx0201_36
ENCODING 54
SWIDTH 480 0
DWIDTH 12 0
BBX 12 24 0 -2
BITMAP
0000
0000
0FC0
1FE0
3CF0
3870
3870
3800
3FC0
3FE0
3CF0
3870
3870
3870
3870
3870
3870
3870
3CF0
1FE0
0FC0
0000
0000
0000
ENDCHAR

STARTCHAR jisx0201_37
ENCODING 55
SWIDTH 480 0
DWIDTH 12 0
BBX 12 24 0 -2
BITMAP
0000
0000
1FF0
1FF0
3FF0
3860
30E0
31C0
01C0
03C0
0380
0380
0380
0780
0700
0700
0700
0700
0700
0700
0700
0000
0000
0000
ENDCHAR

STARTCHAR jisx0201_38
ENCODING 56
SWIDTH 480 0
DWIDTH 12 0
BBX 12 24 0 -2
BITMAP
0000
0000
0F80
1FC0
3CE0
3860
3860
3860
3CE0
1FC0
0F80
1FE0
3DF0
38F0
3070
3070
3070
3870
3CF0
1FE0
0FC0
0000
0000
0000
ENDCHAR

STARTCHAR jisx0201_39
ENCODING 57
SWIDTH 480 0
DWIDTH 12 0
BBX 12 24 0 -2
BITMAP
0000
0000
0FC0
1FE0
3CF0
3870
3870
3870
3870
3870
3870
3870
3CF0
1FF0
0FF0
0070
3870
3870
3CF0
1FE0
0FC0
0000
0000
0000
ENDCHAR

STARTCHAR jisx0201_3A
ENCODING 58
SWIDTH 480 0
DWIDTH 12 0
BBX 12 24 0 -2
BITMAP
0000
0000
0000
0000
0000
0000
0700
0F80
0F80
0700
0000
0000
0000
0000
0000
0000
0700
0F80
0F80
0700
0000
0000
0000
0000
ENDCHAR

STARTCHAR jisx0201_3B
ENCODING 59
SWIDTH 480 0
DWIDTH 12 0
BBX 12 24 0 -2
BITMAP
0000
0000
0000
0000
0000
0000
0700
0F80
0F80
0700
0000
0000
0000
0000
0000
0000
0700
0F80
0F80
0780
0300
0E00
0C00
0000
ENDCHAR

STARTCHAR jisx0201_3C
ENCODING 60
SWIDTH 480 0
DWIDTH 12 0
BBX 12 24 0 -2
BITMAP
0000
0000
0000
0060
00E0
01E0
03C0
0780
0F00
1E00
3C00
3800
3C00
1E00
0F00
0780
03C0
01E0
00E0
0060
0000
0000
0000
0000
ENDCHAR

STARTCHAR jisx0201_3D
ENCODING 61
SWIDTH 480 0
DWIDTH 12 0
BBX 12 24 0 -2
BITMAP
0000
0000
0000
0000
0000
0000
3FF0
3FF0
3FF0
0000
0000
0000
0000
3FF0
3FF0
3FF0
0000
0000
0000
0000
0000
0000
0000
0000
ENDCHAR

STARTCHAR jisx0201_3E
ENCODING 62
SWIDTH 480 0
DWIDTH 12 0
BBX 12 24 0 -2
BITMAP
0000
0000
0000
3000
3800
3C00
1E00
0F00
0780
03C0
01E0
00E0
01E0
03C0
0780
0F00
1E00
3C00
3800
3000
0000
0000
0000
0000
ENDCHAR

STARTCHAR jisx0201_3F
ENCODING 63
SWIDTH 480 0
DWIDTH 12 0
BBX 12 24 0 -2
BITMAP
0000
0000
0FC0
1FE0
3CF0
3870
3870
3870
38E0
01E0
01C0
0380
0380
0300
0300
0300
0000
0380
07C0
07C0
0380
0000
0000
0000
ENDCHAR

STARTCHAR jisx0201_40
ENCODING 64
SWIDTH 480 0
DWIDTH 12 0
BBX 12 24 0 -2
BITMAP
0000
0000
0780
1FE0
3CF0
3030
7770
6FD0
6ED0
7ED0
5CD0
5CD0
5DD0
5DD0
5DD0
7FF0
6F70
3000
3CF0
1FE0
0780
0000
0000
0000
ENDCHAR

STARTCHAR jisx0201_41
ENCODING 65
SWIDTH 480 0
DWIDTH 12 0
BBX 12 24 0 -2
BITMAP
0000
0000
0700
0700
0700
0700
0F80
0F80
0B80
0B80
1FC0
1DC0
19C0
19C0
1FC0
3FE0
38E0
30E0
30E0
79F0
79F0
0000
0000
0000
ENDCHAR

STARTCHAR jisx0201_42
ENCODING 66
SWIDTH 480 0
DWIDTH 12 0
BBX 12 24 0 -2
BITMAP
0000
0000
7F80
7FC0
39E0
38E0
38E0
38E0
38E0
39E0
3FC0
3FE0
38F0
3870
3870
3870
3870
3870
38F0
7FE0
7FC0
0000
0000
0000
ENDCHAR

STARTCHAR jisx0201_43
ENCODING 67
SWIDTH 480 0
DWIDTH 12 0
BBX 12 24 0 -2
BITMAP
0000
0000
0760
1FE0
1EF0
3C70
3830
3830
3800
3800
3800
3800
3800
3800
3830
3830
3830
3C70
1EF0
1FE0
07C0
0000
0000
0000
ENDCHAR

STARTCHAR jisx0201_44
ENCODING 68
SWIDTH 480 0
DWIDTH 12 0
BBX 12 24 0 -2
BITMAP
0000
0000
7F00
7FC0
3BE0
38E0
38F0
3870
3870
3870
3870
3870
3870
3870
3870
3870
38F0
38E0
3BE0
7FC0
7F00
0000
0000
0000
ENDCHAR

STARTCHAR jisx0201_45
ENCODING 69
SWIDTH 480 0
DWIDTH 12 0
BBX 12 24 0 -2
BITMAP
0000
0000
3FE0
3FE0
1CF0
1C70
1C30
1C30
1CC0
1CC0
1FC0
1FC0
1CC0
1CC0
1C00
1C30
1C30
1C70
1CF0
3FE0
3FE0
0000
0000
0000
ENDCHAR

STARTCHAR jisx0201_46
ENCODING 70
SWIDTH 480 0
DWIDTH 12 0
BBX 12 24 0 -2
BITMAP
0000
0000
3FE0
3FE0
1CF0
1C70
1C30
1C30
1CC0
1CC0
1FC0
1FC0
1CC0
1CC0
1C00
1C00
1C00
1C00
1C00
3E00
3E00
0000
0000
0000
ENDCHAR

STARTCHAR jisx0201_47
ENCODING 71
SWIDTH 480 0
DWIDTH 12 0
BBX 12 24 0 -2
BITMAP
0000
0000
0760
1FE0
1EF0
3C70
3830
3830
3800
3800
3800
39F0
39F0
3870
3870
3870
3870
3C70
1EF0
1FF0
07B0
0000
0000
0000
ENDCHAR

STARTCHAR jisx0201_48
ENCODING 72
SWIDTH 480 0
DWIDTH 12 0
BBX 12 24 0 -2
BITMAP
0000
0000
7DF0
7DF0
38E0
38E0
38E0
38E0
38E0
38E0
3FE0
3FE0
38E0
38E0
38E0
38E0
38E0
38E0
38E0
7DF0
7DF0
0000
0000
0000
ENDCHAR

STARTCHAR jisx0201_49
ENCODING 73
SWIDTH 480 0
DWIDTH 12 0
BBX 12 24 0 -2
BITMAP
0000
0000
1FC0
1FC0
0700
0700
0700
0700
0700
0700
0700
0700
0700
0700
0700
0700
0700
0700
0700
1FC0
1FC0
0000
0000
0000
ENDCHAR

STARTCHAR jisx0201_4A
ENCODING 74
SWIDTH 480 0
DWIDTH 12 0
BBX 12 24 0 -2
BITMAP
0000
0000
01F0
01F0
00E0
00E0
00E0
00E0
00E0
00E0
00E0
00E0
00E0
00E0
00E0
38E0
38E0
38E0
3DE0
1FC0
0F80
0000
0000
0000
ENDCHAR

STARTCHAR jisx0201_4B
ENCODING 75
SWIDTH 480 0
DWIDTH 12 0
BBX 12 24 0 -2
BITMAP
0000
0000
7DF0
7DF0
38C0
39C0
3B80
3B80
3F00
3700
3F00
3F80
3B80
3B80
3BC0
39C0
39C0
39E0
38E0
7DF0
7DF0
0000
0000
0000
ENDCHAR

STARTCHAR jisx0201_4C
ENCODING 76
SWIDTH 480 0
DWIDTH 12 0
BBX 12 24 0 -2
BITMAP
0000
0000
3E00
3E00
1C00
1C00
1C00
1C00
1C00
1C00
1C00
1C00
1C00
1C00
1C00
1C30
1C30
1C70
1CF0
3FE0
3FE0
0000
0000
0000
ENDCHAR

STARTCHAR jisx0201_4D
ENCODING 77
SWIDTH 480 0
DWIDTH 12 0
BBX 12 24 0 -2
BITMAP
0000
0000
7870
7870
3CF0
3CF0
3DF0
3DF0
2D70
2F70
3F70
3770
3770
3770
3070
3070
3070
3070
3070
78F0
78F0
0000
0000
0000
ENDCHAR

STARTCHAR jisx0201_4E
ENCODING 78
SWIDTH 480 0
DWIDTH 12 0
BBX 12 24 0 -2
BITMAP
0000
0000
78F0
78F0
3C60
3C60
3C60
3E60
2E60
2E60
3F60
3760
3760
3360
3360
33E0
31E0
31E0
31E0
78E0
78E0
0000
0000
0000
ENDCHAR

STARTCHAR jisx0201_4F
ENCODING 79
SWIDTH 480 0
DWIDTH 12 0
BBX 12 24 0 -2
BITMAP
0000
0000
0F80
3FE0
3DE0
78F0
7070
7070
7070
7070
7070
7070
7070
7070
7070
7070
7070
78F0
3DE0
3FE0
0F80
0000
0000
0000
ENDCHAR

STARTCHAR jisx0201_50
ENCODING 80
SWIDTH 480 0
DWIDTH 12 0
BBX 12 24 0 -2
BITMAP
0000
0000
7FC0
7FE0
38F0
3870
3870
3870
3870
3870
3870
38F0
3FE0
3FC0
3800
3800
3800
3800
3800
7C00
7C00
0000
0000
0000
ENDCHAR

STARTCHAR jisx0201_51
ENCODING 81
SWIDTH 480 0
DWIDTH 12 0
BBX 12 24 0 -2
BITMAP
0000
0000
0F80
3FE0
3DE0
78F0
7070
7070
7070
7070
7070
7070
7070
7070
7070
7F70
6F70
7BE0
3DD0
3FF0
0F70
0000
0000
0000
ENDCHAR

STARTCHAR jisx0201_52
ENCODING 82
SWIDTH 480 0
DWIDTH 12 0
BBX 12 24 0 -2
BITMAP
0000
0000
7F80
7FC0
39E0
38E0
38E0
38E0
38E0
38E0
39E0
3FC0
3F80
39E0
38E0
38E0
38E0
38F0
38D0
7CF0
7C70
0000
0000
0000
ENDCHAR

STARTCHAR jisx0201_53
ENCODING 83
SWIDTH 480 0
DWIDTH 12 0
BBX 12 24 0 -2
BITMAP
0000
0000
1EC0
3FC0
79E0
70E0
7060
7060
7800
7C00
3F00
1FC0
07E0
01F0
00F0
6070
6070
7070
7CF0
3FE0
2FC0
0000
0000
0000
ENDCHAR

STARTCHAR jisx0201_54
ENCODING 84
SWIDTH 480 0
DWIDTH 12 0
BBX 12 24 0 -2
BITMAP
0000
0000
7FF0
7FF0
7770
6730
6730
0700
0700
0700
0700
0700
0700
0700
0700
0700
0700
0700
0700
0F80
0F80
0000
0000
0000
ENDCHAR

STARTCHAR jisx0201_55
ENCODING 85
SWIDTH 480 0
DWIDTH 12 0
BBX 12 24 0 -2
BITMAP
0000
0000
7CF0
7CF0
3860
3860
3860
3860
3860
3860
3860
3860
3860
3860
3860
3860
3860
38E0
3DE0
1FC0
0F80
0000
0000
0000
ENDCHAR

STARTCHAR jisx0201_56
ENCODING 86
SWIDTH 480 0
DWIDTH 12 0
BBX 12 24 0 -2
BITMAP
0000
0000
7CF0
7CF0
3860
3860
38E0
3CE0
1CC0
1CC0
1CC0
1DC0
1DC0
0D80
0D80
0F80
0F80
0700
0700
0700
0700
0000
0000
0000
ENDCHAR

STARTCHAR jisx0201_57
ENCODING 87
SWIDTH 480 0
DWIDTH 12 0
BBX 12 24 0 -2
BITMAP
0000
0000
7870
7870
7030
7030
7030
7330
7330
7370
7B70
3F60
3760
3760
3FE0
3FE0
1DC0
1DC0
1DC0
1DC0
1DC0
0000
0000
0000
ENDCHAR

STARTCHAR jisx0201_58
ENCODING 88
SWIDTH 480 0
DWIDTH 12 0
BBX 12 24 0 -2
BITMAP
0000
0000
7CF0
7CF0
3860
3CE0
1DC0
1DC0
0D80
0F80
0F80
0700
0F80
0F80
1BC0
1DC0
19C0
39E0
38E0
71F0
79F0
0000
0000
0000
ENDCHAR

STARTCHAR jisx0201_59
ENCODING 89
SWIDTH 480 0
DWIDTH 12 0
BBX 12 24 0 -2
BITMAP
0000
0000
7CF0
7CF0
3860
38E0
3CE0
1CC0
1DC0
1DC0
0D80
0F80
0F80
0700
0700
0700
0700
0700
0700
0F80
0F80
0000
0000
0000
ENDCHAR

STARTCHAR jisx0201_5A
ENCODING 90
SWIDTH 480 0
DWIDTH 12 0
BBX 12 24 0 -2
BITMAP
0000
0000
1FF0
1FF0
3C70
38E0
31E0
31C0
03C0
0380
0780
0700
0F00
0E00
1E00
1C30
3C30
3870
78F0
77E0
7FE0
0000
0000
0000
ENDCHAR

STARTCHAR jisx0201_5B
ENCODING 91
SWIDTH 480 0
DWIDTH 12 0
BBX 12 24 0 -2
BITMAP
07E0
07E0
07E0
0700
0700
0700
0700
0700
0700
0700
0700
0700
0700
0700
0700
0700
0700
0700
0700
0700
07E0
07E0
07E0
0000
ENDCHAR

STARTCHAR jisx0201_5C
ENCODING 92
SWIDTH 480 0
DWIDTH 12 0
BBX 12 24 0 -2
BITMAP
0000
0000
7CF0
7CF0
3860
38E0
3CE0
1CC0
1DC0
1DC0
0D80
7FF0
7FF0
0700
7FF0
7FF0
0700
0700
0700
0F80
0F80
0000
0000
0000
ENDCHAR

STARTCHAR jisx0201_5D
ENCODING 93
SWIDTH 480 0
DWIDTH 12 0
BBX 12 24 0 -2
BITMAP
1F80
1F80
1F80
0380
0380
0380
0380
0380
0380
0380
0380
0380
0380
0380
0380
0380
0380
0380
0380
0380
1F80
1F80
1F80
0000
ENDCHAR

STARTCHAR jisx0201_5E
ENCODING 94
SWIDTH 480 0
DWIDTH 12 0
BBX 12 24 0 -2
BITMAP
0700
0F80
1FC0
3DE0
38E0
0000
0000
0000
0000
0000
0000
0000
0000
0000
0000
0000
0000
0000
0000
0000
0000
0000
0000
0000
ENDCHAR

STARTCHAR jisx0201_5F
ENCODING 95
SWIDTH 480 0
DWIDTH 12 0
BBX 12 24 0 -2
BITMAP
0000
0000
0000
0000
0000
0000
0000
0000
0000
0000
0000
0000
0000
0000
0000
0000
0000
0000
0000
7FF0
7FF0
7FF0
0000
0000
ENDCHAR

STARTCHAR jisx0201_60
ENCODING 96
SWIDTH 480 0
DWIDTH 12 0
BBX 12 24 0 -2
BITMAP
00C0
01C0
0380
03C0
03C0
03C0
0180
0000
0000
0000
0000
0000
0000
0000
0000
0000
0000
0000
0000
0000
0000
0000
0000
0000
ENDCHAR

STARTCHAR jisx0201_61
ENCODING 97
SWIDTH 480 0
DWIDTH 12 0
BBX 12 24 0 -2
BITMAP
0000
0000
0000
0000
0000
0000
0000
0FC0
1FE0
1CE0
1CE0
00E0
03E0
0FE0
1EE0
3CE0
38E0
38F0
3DD0
3FF0
1F70
0000
0000
0000
ENDCHAR

STARTCHAR jisx0201_62
ENCODING 98
SWIDTH 480 0
DWIDTH 12 0
BBX 12 24 0 -2
BITMAP
0000
0000
0C00
3C00
3C00
1C00
1C00
1FC0
1BE0
1EF0
1C70
1C70
1C70
1C70
1C70
1C70
1C70
1C70
1EF0
3FE0
3BC0
0000
0000
0000
ENDCHAR

STARTCHAR jisx0201_63
ENCODING 99
SWIDTH 480 0
DWIDTH 12 0
BBX 12 24 0 -2
BITMAP
0000
0000
0000
0000
0000
0000
0000
0F80
1FC0
3DE0
38E0
38E0
3800
3800
3800
3800
3860
38E0
3DE0
1FC0
0F80
0000
0000
0000
ENDCHAR

STARTCHAR jisx0201_64
ENCODING 100
SWIDTH 480 0
DWIDTH 12 0
BBX 12 24 0 -2
BITMAP
0000
0000
0060
01E0
01E0
00E0
00E0
0EE0
1FE0
3DE0
38E0
38E0
38E0
38E0
38E0
38E0
38E0
38E0
3DE0
1FF0
0EF0
0000
0000
0000
ENDCHAR

STARTCHAR jisx0201_65
ENCODING 101
SWIDTH 480 0
DWIDTH 12 0
BBX 12 24 0 -2
BITMAP
0000
0000
0000
0000
0000
0000
0000
0F80
1FC0
3DE0
38E0
38E0
3FE0
3FE0
3800
3800
3860
38E0
3DE0
1FC0
0F80
0000
0000
0000
ENDCHAR

STARTCHAR jisx0201_66
ENCODING 102
SWIDTH 480 0
DWIDTH 12 0
BBX 12 24 0 -2
BITMAP
0000
0000
03E0
07E0
06E0
0700
0700
1FE0
1FE0
0700
0700
0700
0700
0700
0700
0700
0700
0700
0700
0F80
0F80
0000
0000
0000
ENDCHAR

STARTCHAR jisx0201_67
ENCODING 103
SWIDTH 480 0
DWIDTH 12 0
BBX 12 24 0 -2
BITMAP
0000
0000
0000
0000
0000
0000
0000
0770
0FF0
1CB0
1CE0
1CE0
1CE0
0FC0
1F80
1C00
1FE0
0FF0
3CF0
3870
3CF0
1FE0
0FC0
0000
ENDCHAR

STARTCHAR jisx0201_68
ENCODING 104
SWIDTH 480 0
DWIDTH 12 0
BBX 12 24 0 -2
BITMAP
0000
0000
1800
7800
7800
3800
3800
3FC0
37E0
3CE0
38E0
38E0
38E0
38E0
38E0
38E0
38E0
38E0
38E0
7DF0
7DF0
0000
0000
0000
ENDCHAR

STARTCHAR jisx0201_69
ENCODING 105
SWIDTH 480 0
DWIDTH 12 0
BBX 12 24 0 -2
BITMAP
0000
0000
0700
0700
0700
0000
0000
0300
0F00
0F00
0700
0700
0700
0700
0700
0700
0700
0700
0700
0F80
0F80
0000
0000
0000
ENDCHAR

STARTCHAR jisx0201_6A
ENCODING 106
SWIDTH 480 0
DWIDTH 12 0
BBX 12 24 0 -2
BITMAP
0000
0000
0380
0380
0380
0000
0000
0180
0780
0780
0380
0380
0380
0380
0380
0380
0380
0380
0380
3B80
3B80
3F80
1F00
0000
ENDCHAR

STARTCHAR jisx0201_6B
ENCODING 107
SWIDTH 480 0
DWIDTH 12 0
BBX 12 24 0 -2
BITMAP
0000
0000
1800
7800
7800
3800
3800
39F0
39F0
38E0
3BC0
3F80
3700
3F80
3B80
3BC0
39C0
39E0
38E0
7DF0
7DF0
0000
0000
0000
ENDCHAR

STARTCHAR jisx0201_6C
ENCODING 108
SWIDTH 480 0
DWIDTH 12 0
BBX 12 24 0 -2
BITMAP
0000
0000
0F00
0F00
0700
0700
0700
0700
0700
0700
0700
0700
0700
0700
0700
0700
0700
0700
0700
0F80
0F80
0000
0000
0000
ENDCHAR

STARTCHAR jisx0201_6D
ENCODING 109
SWIDTH 480 0
DWIDTH 12 0
BBX 12 24 0 -2
BITMAP
0000
0000
0000
0000
0000
0000
0000
1770
7FF0
7BB0
3BB0
3BB0
3BB0
3BB0
3BB0
3BB0
3BB0
3BB0
3BB0
7BF0
7B70
0000
0000
0000
ENDCHAR

STARTCHAR jisx0201_6E
ENCODING 110
SWIDTH 480 0
DWIDTH 12 0
BBX 12 24 0 -2
BITMAP
0000
0000
0000
0000
0000
0000
0000
17C0
7FE0
7CE0
38E0
38E0
38E0
38E0
38E0
38E0
38E0
38E0
38E0
7DF0
7DF0
0000
0000
0000
ENDCHAR

STARTCHAR jisx0201_6F
ENCODING 111
SWIDTH 480 0
DWIDTH 12 0
BBX 12 24 0 -2
BITMAP
0000
0000
0000
0000
0000
0000
0000
0F80
1FC0
3DE0
38E0
38E0
38E0
38E0
38E0
38E0
38E0
38E0
3DE0
1FC0
0F80
0000
0000
0000
ENDCHAR

STARTCHAR jisx0201_70
ENCODING 112
SWIDTH 480 0
DWIDTH 12 0
BBX 12 24 0 -2
BITMAP
0000
0000
0000
0000
0000
0000
0000
0BC0
3FE0
3EF0
1C70
1C70
1C70
1C70
1C70
1C70
1C70
1EF0
1FE0
1BC0
1C00
3E00
3E00
0000
ENDCHAR

STARTCHAR jisx0201_71
ENCODING 113
SWIDTH 480 0
DWIDTH 12 0
BBX 12 24 0 -2
BITMAP
0000
0000
0000
0000
0000
0000
0000
0F60
1FE0
3DE0
38E0
38E0
38E0
38E0
38E0
38E0
38E0
3DE0
1FE0
0EE0
00E0
01F0
01F0
0000
ENDCHAR

STARTCHAR jisx0201_72
ENCODING 114
SWIDTH 480 0
DWIDTH 12 0
BBX 12 24 0 -2
BITMAP
0000
0000
0000
0000
0000
0000
0000
06F0
1FF0
1D70
0F00
0E00
0E00
0E00
0E00
0E00
0E00
0E00
0E00
1F00
1F00
0000
0000
0000
ENDCHAR

STARTCHAR jisx0201_73
ENCODING 115
SWIDTH 480 0
DWIDTH 12 0
BBX 12 24 0 -2
BITMAP
0000
0000
0000
0000
0000
0000
0000
0EC0
1FC0
3DC0
38C0
38C0
3E00
1F80
0FC0
03E0
30E0
30E0
39E0
3FC0
2F80
0000
0000
0000
ENDCHAR

STARTCHAR jisx0201_74
ENCODING 116
SWIDTH 480 0
DWIDTH 12 0
BBX 12 24 0 -2
BITMAP
0000
0000
0300
0700
0700
0700
0700
1FC0
1FC0
0700
0700
0700
0700
0700
0700
0700
0700
0760
07E0
06E0
03C0
0000
0000
0000
ENDCHAR

STARTCHAR jisx0201_75
ENCODING 117
SWIDTH 480 0
DWIDTH 12 0
BBX 12 24 0 -2
BITMAP
0000
0000
0000
0000
0000
0000
0000
1860
79E0
79E0
38E0
38E0
38E0
38E0
38E0
38E0
38E0
38E0
39E0
3FF0
1EF0
0000
0000
0000
ENDCHAR

STARTCHAR jisx0201_76
ENCODING 118
SWIDTH 480 0
DWIDTH 12 0
BBX 12 24 0 -2
BITMAP
0000
0000
0000
0000
0000
0000
0000
7CF0
7CF0
3860
38E0
3CE0
1CC0
1DC0
1DC0
0D80
0F80
0F80
0700
0700
0700
0000
0000
0000
ENDCHAR

STARTCHAR jisx0201_77
ENCODING 119
SWIDTH 480 0
DWIDTH 12 0
BBX 12 24 0 -2
BITMAP
0000
0000
0000
0000
0000
0000
0000
7C70
7C70
3830
3830
3BB0
3BB0
3FB0
37B0
3DF0
1FF0
1EE0
1CE0
1CE0
1CE0
0000
0000
0000
ENDCHAR

STARTCHAR jisx0201_78
ENCODING 120
SWIDTH 480 0
DWIDTH 12 0
BBX 12 24 0 -2
BITMAP
0000
0000
0000
0000
0000
0000
0000
3EF0
3EF0
1C60
1EE0
0FC0
0DC0
0780
0780
0FC0
0DC0
1DE0
1CE0
39F0
3DF0
0000
0000
0000
ENDCHAR

STARTCHAR jisx0201_79
ENCODING 121
SWIDTH 480 0
DWIDTH 12 0
BBX 12 24 0 -2
BITMAP
0000
0000
0000
0000
0000
0000
0000
7CF0
7CF0
3860
3CE0
1CC0
1DC0
1DC0
0D80
0F80
0F80
0700
0700
7700
7E00
6E00
3C00
0000
ENDCHAR

STARTCHAR jisx0201_7A
ENCODING 122
SWIDTH 480 0
DWIDTH 12 0
BBX 12 24 0 -2
BITMAP
0000
0000
0000
0000
0000
0000
0000
1FE0
1FE0
1CE0
19C0
1BC0
0380
0780
0F00
0E00
1E60
1C60
3CE0
3BE0
3FE0
0000
0000
0000
ENDCHAR

STARTCHAR jisx0201_7B
ENCODING 123
SWIDTH 480 0
DWIDTH 12 0
BBX 12 24 0 -2
BITMAP
00E0
01E0
03C0
0380
0380
0380
0380
0380
0380
0780
0F00
0E00
0780
0380
0380
0380
0380
0380
0380
0380
03C0
01E0
00E0
0000
ENDCHAR

STARTCHAR jisx0201_7C
ENCODING 124
SWIDTH 480 0
DWIDTH 12 0
BBX 12 24 0 -2
BITMAP
0700
0700
0700
0700
0700
0700
0700
0700
0700
0700
0700
0700
0700
0700
0700
0700
0700
0700
0700
0700
0700
0700
0700
0000
ENDCHAR

STARTCHAR jisx0201_7D
ENCODING 125
SWIDTH 480 0
DWIDTH 12 0
BBX 12 24 0 -2
BITMAP
7000
7800
3C00
1C00
1C00
1C00
1C00
1C00
1C00
1E00
0F00
0700
1E00
1C00
1C00
1C00
1C00
1C00
1C00
1C00
3C00
7800
7000
0000
ENDCHAR

STARTCHAR jisx0201_7E
ENCODING 126
SWIDTH 480 0
DWIDTH 12 0
BBX 12 24 0 -2
BITMAP
0000
0000
0000
0000
0000
0000
0000
0000
0000
1E10
3FF0
7FF0
63E0
0000
0000
0000
0000
0000
0000
0000
0000
0000
0000
0000
ENDCHAR

STARTCHAR onx127
ENCODING 127
SWIDTH 500 0
DWIDTH 12 0
BBX 12 24 0 -2
BITMAP
1980
6660
6660
6660
1980
1980
1980
6660
6660
6660
1980
1980
1980
6660
6660
6660
1980
1980
1980
6660
6660
6660
1980
1980
ENDCHAR

STARTCHAR onx128
ENCODING 128
SWIDTH 500 0
DWIDTH 12 0
BBX 12 24 0 -2
BITMAP
0000
0000
3C00
4200
4200
4200
3C00
4200
4200
4200
3C00
0000
03C0
0420
0420
0420
0420
0420
0420
0420
03C0
0000
0000
0000
ENDCHAR

STARTCHAR onx129
ENCODING 129
SWIDTH 500 0
DWIDTH 12 0
BBX 12 24 0 -2
BITMAP
0000
0000
3C00
4200
4200
4200
3C00
4200
4200
4200
3C00
0000
0080
0180
0280
0080
0080
0080
0080
0080
03E0
0000
0000
0000
ENDCHAR

STARTCHAR onx130
ENCODING 130
SWIDTH 500 0
DWIDTH 12 0
BBX 12 24 0 -2
BITMAP
0000
0000
3C00
4200
4200
4200
3C00
4200
4200
4200
3C00
0000
03C0
0420
0420
0040
0080
0100
0200
0400
07E0
0000
0000
0000
ENDCHAR

STARTCHAR onx131
ENCODING 131
SWIDTH 500 0
DWIDTH 12 0
BBX 12 24 0 -2
BITMAP
0000
0000
3C00
4200
4200
4200
3C00
4200
4200
4200
3C00
0000
03C0
0420
0020
0020
01C0
0020
0020
0420
03C0
0000
0000
0000
ENDCHAR

STARTCHAR onx132
ENCODING 132
SWIDTH 500 0
DWIDTH 12 0
BBX 12 24 0 -2
BITMAP
0000
0000
3C00
4200
4200
4200
3C00
4200
4200
4200
3C00
0000
0080
0180
0280
0480
0880
0880
0FC0
0080
0080
0000
0000
0000
ENDCHAR

STARTCHAR onx133
ENCODING 133
SWIDTH 500 0
DWIDTH 12 0
BBX 12 24 0 -2
BITMAP
0000
0000
3C00
4200
4200
4200
3C00
4200
4200
4200
3C00
0000
07E0
0400
0400
0400
07C0
0020
0020
0420
03C0
0000
0000
0000
ENDCHAR

STARTCHAR onx134
ENCODING 134
SWIDTH 500 0
DWIDTH 12 0
BBX 12 24 0 -2
BITMAP
0000
0000
3C00
4200
4200
4200
3C00
4200
4200
4200
3C00
0000
03C0
0420
0400
0400
07C0
0420
0420
0420
03C0
0000
0000
0000
ENDCHAR

STARTCHAR onx135
ENCODING 135
SWIDTH 500 0
DWIDTH 12 0
BBX 12 24 0 -2
BITMAP
0000
0000
3C00
4200
4200
4200
3C00
4200
4200
4200
3C00
0000
07E0
0020
0040
0040
0080
0080
0100
0100
0100
0000
0000
0000
ENDCHAR

STARTCHAR onx136
ENCODING 136
SWIDTH 500 0
DWIDTH 12 0
BBX 12 24 0 -2
BITMAP
0000
0000
3C00
4200
4200
4200
3C00
4200
4200
4200
3C00
0000
03C0
0420
0420
0420
03C0
0420
0420
0420
03C0
0000
0000
0000
ENDCHAR

STARTCHAR onx137
ENCODING 137
SWIDTH 500 0
DWIDTH 12 0
BBX 12 24 0 -2
BITMAP
0000
0000
3C00
4200
4200
4200
3C00
4200
4200
4200
3C00
0000
03C0
0420
0420
0420
03E0
0020
0020
0420
03C0
0000
0000
0000
ENDCHAR

STARTCHAR onx138
ENCODING 138
SWIDTH 500 0
DWIDTH 12 0
BBX 12 24 0 -2
BITMAP
0000
0000
3C00
4200
4200
4200
3C00
4200
4200
4200
3C00
0000
0180
0180
0240
0240
0420
07E0
0420
0420
0420
0000
0000
0000
ENDCHAR

STARTCHAR onx139
ENCODING 139
SWIDTH 500 0
DWIDTH 12 0
BBX 12 24 0 -2
BITMAP
0000
0000
3C00
4200
4200
4200
3C00
4200
4200
4200
3C00
0000
07C0
0220
0220
0220
03C0
0220
0220
0220
07C0
0000
0000
0000
ENDCHAR

STARTCHAR onx140
ENCODING 140
SWIDTH 500 0
DWIDTH 12 0
BBX 12 24 0 -2
BITMAP
0000
0000
3C00
4200
4200
4200
3C00
4200
4200
4200
3C00
0000
03C0
0420
0420
0400
0400
0400
0400
0420
03C0
0000
0000
0000
ENDCHAR

STARTCHAR onx141
ENCODING 141
SWIDTH 500 0
DWIDTH 12 0
BBX 12 24 0 -2
BITMAP
0000
0000
3C00
4200
4200
4200
3C00
4200
4200
4200
3C00
0000
0780
0440
0420
0420
0420
0420
0420
0440
0780
0000
0000
0000
ENDCHAR

STARTCHAR onx142
ENCODING 142
SWIDTH 500 0
DWIDTH 12 0
BBX 12 24 0 -2
BITMAP
0000
0000
3C00
4200
4200
4200
3C00
4200
4200
4200
3C00
0000
07E0
0400
0400
0400
07C0
0400
0400
0400
07E0
0000
0000
0000
ENDCHAR

STARTCHAR onx143
ENCODING 143
SWIDTH 500 0
DWIDTH 12 0
BBX 12 24 0 -2
BITMAP
0000
0000
3C00
4200
4200
4200
3C00
4200
4200
4200
3C00
0000
07E0
0400
0400
0400
07C0
0400
0400
0400
0400
0000
0000
0000
ENDCHAR

STARTCHAR onx144
ENCODING 144
SWIDTH 500 0
DWIDTH 12 0
BBX 12 24 0 -2
BITMAP
0000
0000
3C00
4200
4200
4200
3E00
0200
0200
4200
3C00
0000
03C0
0420
0420
0420
0420
0420
0420
0420
03C0
0000
0000
0000
ENDCHAR

STARTCHAR onx145
ENCODING 145
SWIDTH 500 0
DWIDTH 12 0
BBX 12 24 0 -2
BITMAP
0000
0000
3C00
4200
4200
4200
3E00
0200
0200
4200
3C00
0000
0080
0180
0280
0080
0080
0080
0080
0080
03E0
0000
0000
0000
ENDCHAR

STARTCHAR onx146
ENCODING 146
SWIDTH 500 0
DWIDTH 12 0
BBX 12 24 0 -2
BITMAP
0000
0000
3C00
4200
4200
4200
3E00
0200
0200
4200
3C00
0000
03C0
0420
0420
0040
0080
0100
0200
0400
07E0
0000
0000
0000
ENDCHAR

STARTCHAR onx147
ENCODING 147
SWIDTH 500 0
DWIDTH 12 0
BBX 12 24 0 -2
BITMAP
0000
0000
3C00
4200
4200
4200
3E00
0200
0200
4200
3C00
0000
03C0
0420
0020
0020
01C0
0020
0020
0420
03C0
0000
0000
0000
ENDCHAR

STARTCHAR onx148
ENCODING 148
SWIDTH 500 0
DWIDTH 12 0
BBX 12 24 0 -2
BITMAP
0000
0000
3C00
4200
4200
4200
3E00
0200
0200
4200
3C00
0000
0080
0180
0280
0480
0880
0880
0FC0
0080
0080
0000
0000
0000
ENDCHAR

STARTCHAR onx149
ENCODING 149
SWIDTH 500 0
DWIDTH 12 0
BBX 12 24 0 -2
BITMAP
0000
0000
3C00
4200
4200
4200
3E00
0200
0200
4200
3C00
0000
07E0
0400
0400
0400
07C0
0020
0020
0420
03C0
0000
0000
0000
ENDCHAR

STARTCHAR onx150
ENCODING 150
SWIDTH 500 0
DWIDTH 12 0
BBX 12 24 0 -2
BITMAP
0000
0000
3C00
4200
4200
4200
3E00
0200
0200
4200
3C00
0000
03C0
0420
0400
0400
07C0
0420
0420
0420
03C0
0000
0000
0000
ENDCHAR

STARTCHAR onx151
ENCODING 151
SWIDTH 500 0
DWIDTH 12 0
BBX 12 24 0 -2
BITMAP
0000
0000
3C00
4200
4200
4200
3E00
0200
0200
4200
3C00
0000
07E0
0020
0040
0040
0080
0080
0100
0100
0100
0000
0000
0000
ENDCHAR

STARTCHAR onx152
ENCODING 152
SWIDTH 500 0
DWIDTH 12 0
BBX 12 24 0 -2
BITMAP
0000
0000
3C00
4200
4200
4200
3E00
0200
0200
4200
3C00
0000
03C0
0420
0420
0420
03C0
0420
0420
0420
03C0
0000
0000
0000
ENDCHAR

STARTCHAR onx153
ENCODING 153
SWIDTH 500 0
DWIDTH 12 0
BBX 12 24 0 -2
BITMAP
0000
0000
3C00
4200
4200
4200
3E00
0200
0200
4200
3C00
0000
03C0
0420
0420
0420
03E0
0020
0020
0420
03C0
0000
0000
0000
ENDCHAR

STARTCHAR onx154
ENCODING 154
SWIDTH 500 0
DWIDTH 12 0
BBX 12 24 0 -2
BITMAP
0000
0000
3C00
4200
4200
4200
3E00
0200
0200
4200
3C00
0000
0180
0180
0240
0240
0420
07E0
0420
0420
0420
0000
0000
0000
ENDCHAR

STARTCHAR onx155
ENCODING 155
SWIDTH 500 0
DWIDTH 12 0
BBX 12 24 0 -2
BITMAP
0000
0000
3C00
4200
4200
4200
3E00
0200
0200
4200
3C00
0000
07C0
0220
0220
0220
03C0
0220
0220
0220
07C0
0000
0000
0000
ENDCHAR

STARTCHAR onx156
ENCODING 156
SWIDTH 500 0
DWIDTH 12 0
BBX 12 24 0 -2
BITMAP
0000
0000
3C00
4200
4200
4200
3E00
0200
0200
4200
3C00
0000
03C0
0420
0420
0400
0400
0400
0400
0420
03C0
0000
0000
0000
ENDCHAR

STARTCHAR onx157
ENCODING 157
SWIDTH 500 0
DWIDTH 12 0
BBX 12 24 0 -2
BITMAP
0000
0000
3C00
4200
4200
4200
3E00
0200
0200
4200
3C00
0000
0780
0440
0420
0420
0420
0420
0420
0440
0780
0000
0000
0000
ENDCHAR

STARTCHAR onx158
ENCODING 158
SWIDTH 500 0
DWIDTH 12 0
BBX 12 24 0 -2
BITMAP
0000
0000
3C00
4200
4200
4200
3E00
0200
0200
4200
3C00
0000
07E0
0400
0400
0400
07C0
0400
0400
0400
07E0
0000
0000
0000
ENDCHAR

STARTCHAR onx159
ENCODING 159
SWIDTH 500 0
DWIDTH 12 0
BBX 12 24 0 -2
BITMAP
0000
0000
3C00
4200
4200
4200
3E00
0200
0200
4200
3C00
0000
07E0
0400
0400
0400
07C0
0400
0400
0400
0400
0000
0000
0000
ENDCHAR

STARTCHAR onx160
ENCODING 160
SWIDTH 500 0
DWIDTH 12 0
BBX 12 24 0 -2
BITMAP
0000
0000
1800
1800
2400
2400
4200
7E00
4200
4200
4200
0000
03C0
0420
0420
0420
0420
0420
0420
0420
03C0
0000
0000
0000
ENDCHAR

STARTCHAR jisx0201_A1
ENCODING 161
SWIDTH 480 0
DWIDTH 12 0
BBX 12 24 0 -2
BITMAP
0000
0000
0000
0000
0000
0000
0000
0000
0000
0000
0000
0000
0000
0000
0000
0000
0000
3C00
7E00
6600
6600
7E00
3C00
0000
ENDCHAR

STARTCHAR jisx0201_A2
ENCODING 162
SWIDTH 480 0
DWIDTH 12 0
BBX 12 24 0 -2
BITMAP
03F0
03F0
03F0
0380
0380
0380
0380
0380
0380
0380
0380
0380
0380
0380
0380
0380
0380
0380
0380
0380
0380
0380
0380
0000
ENDCHAR

STARTCHAR jisx0201_A3
ENCODING 163
SWIDTH 480 0
DWIDTH 12 0
BBX 12 24 0 -2
BITMAP
0700
0700
0700
0700
0700
0700
0700
0700
0700
0700
0700
0700
0700
0700
0700
0700
0700
0700
0700
0700
7F00
7F00
7F00
0000
ENDCHAR

STARTCHAR jisx0201_A4
ENCODING 164
SWIDTH 480 0
DWIDTH 12 0
BBX 12 24 0 -2
BITMAP
0000
0000
0000
0000
0000
0000
0000
0000
0000
0000
0000
0000
0000
0000
0000
0000
0000
0000
7000
7800
3C00
1C00
1C00
0000
ENDCHAR

STARTCHAR jisx0201_A5
ENCODING 165
SWIDTH 480 0
DWIDTH 12 0
BBX 12 24 0 -2
BITMAP
0000
0000
0000
0000
0000
0000
0000
0000
0000
0700
0F80
0F80
0F80
0700
0000
0000
0000
0000
0000
0000
0000
0000
0000
0000
ENDCHAR

STARTCHAR jisx0201_A6
ENCODING 166
SWIDTH 480 0
DWIDTH 12 0
BBX 12 24 0 -2
BITMAP
0000
0000
0000
3070
3FF0
3FF0
3C70
0070
3070
3FF0
3FF0
3C70
0070
00F0
00E0
00E0
01E0
01C0
03C0
0780
0F00
0E00
0000
0000
ENDCHAR

STARTCHAR jisx0201_A7
ENCODING 167
SWIDTH 480 0
DWIDTH 12 0
BBX 12 24 0 -2
BITMAP
0000
0000
0000
0000
0000
0000
6060
7FF0
7FF0
38F0
01E0
0FC0
0F80
0700
0700
0700
0700
0F00
0E00
1E00
1C00
1800
0000
0000
ENDCHAR

STARTCHAR jisx0201_A8
ENCODING 168
SWIDTH 480 0
DWIDTH 12 0
BBX 12 24 0 -2
BITMAP
0000
0000
0000
0000
0000
01E0
01F0
00F0
01E0
01C0
03C0
0780
0FC0
1F80
3B80
7B80
7380
0380
0380
0780
0780
0380
0000
0000
ENDCHAR

STARTCHAR jisx0201_A9
ENCODING 169
SWIDTH 480 0
DWIDTH 12 0
BBX 12 24 0 -2
BITMAP
0000
0000
0000
0000
0000
0F00
0F00
0700
77E0
7EF0
3FF0
38E0
38E0
38E0
38E0
38E0
01E0
01C0
03C0
0780
0F00
0E00
0000
0000
ENDCHAR

STARTCHAR jisx0201_AA
ENCODING 170
SWIDTH 480 0
DWIDTH 12 0
BBX 12 24 0 -2
BITMAP
0000
0000
0000
0000
0000
0000
0000
30F0
3FF0
3FF0
3700
0780
0700
0700
0700
0700
6770
7FF0
7FF0
7810
0000
0000
0000
0000
ENDCHAR

STARTCHAR jisx0201_AB
ENCODING 171
SWIDTH 480 0
DWIDTH 12 0
BBX 12 24 0 -2
BITMAP
0000
0000
0000
0000
0000
03C0
03C0
01C0
31F0
3FB0
3FF0
3BC0
07C0
07C0
0FC0
1DC0
3DC0
79C0
77C0
03C0
01C0
0180
0000
0000
ENDCHAR

STARTCHAR jisx0201_AC
ENCODING 172
SWIDTH 480 0
DWIDTH 12 0
BBX 12 24 0 -2
BITMAP
0000
0000
0000
0000
0000
1E00
1F00
0F00
0E70
6FF0
7FF0
7E70
6EE0
0FC0
0D80
0E00
0700
0700
0700
0700
0700
0700
0000
0000
ENDCHAR

STARTCHAR jisx0201_AD
ENCODING 173
SWIDTH 480 0
DWIDTH 12 0
BBX 12 24 0 -2
BITMAP
0000
0000
0000
0000
0000
0000
0000
19C0
1FE0
1FE0
1DC0
01C0
01C0
01C0
0180
0180
61F0
7F70
7FF0
7810
0000
0000
0000
0000
ENDCHAR

STARTCHAR jisx0201_AE
ENCODING 174
SWIDTH 480 0
DWIDTH 12 0
BBX 12 24 0 -2
BITMAP
0000
0000
0000
0000
0000
0000
0000
18E0
1FF0
1FF0
1CE0
00E0
18E0
1FE0
1FE0
1CE0
00E0
18E0
1FF0
1FF0
1C00
0000
0000
0000
ENDCHAR

STARTCHAR jisx0201_AF
ENCODING 175
SWIDTH 480 0
DWIDTH 12 0
BBX 12 24 0 -2
BITMAP
0000
0000
0000
0000
0000
0000
0DC0
6FE0
7EF0
76F0
3EE0
38E0
00E0
01E0
01C0
01C0
03C0
0380
0780
0F00
1E00
1C00
0000
0000
ENDCHAR

STARTCHAR jisx0201_B0
ENCODING 176
SWIDTH 480 0
DWIDTH 12 0
BBX 12 24 0 -2
BITMAP
0000
0000
0000
0000
0000
0000
0000
0000
0000
6070
7FF0
7FF0
7810
0000
0000
0000
0000
0000
0000
0000
0000
0000
0000
0000
ENDCHAR

STARTCHAR jisx0201_B1
ENCODING 177
SWIDTH 480 0
DWIDTH 12 0
BBX 12 24 0 -2
BITMAP
0000
0000
6070
7FF0
7FF0
7870
00E0
01E0
0FC0
0F80
0700
0700
0700
0700
0F00
0E00
0E00
1E00
1C00
3C00
3800
3000
0000
0000
ENDCHAR

STARTCHAR jisx0201_B2
ENCODING 178
SWIDTH 480 0
DWIDTH 12 0
BBX 12 24 0 -2
BITMAP
0000
01C0
01E0
00F0
00F0
01E0
01C0
03C0
0380
07C0
0F80
0F80
1B80
3B80
7B80
7380
0380
0380
0380
0780
0780
0380
0000
0000
ENDCHAR

STARTCHAR jisx0201_B3
ENCODING 179
SWIDTH 480 0
DWIDTH 12 0
BBX 12 24 0 -2
BITMAP
0000
0F00
0F80
0780
0700
7770
7FF0
3FF0
3870
3870
3870
3870
3870
38F0
00E0
00E0
01E0
01C0
03C0
0780
0F00
0E00
0000
0000
ENDCHAR

STARTCHAR jisx0201_B4
ENCODING 180
SWIDTH 480 0
DWIDTH 12 0
BBX 12 24 0 -2
BITMAP
0000
0000
0000
0000
30F0
3FF0
3FF0
3730
0780
0700
0700
0700
0700
0700
0700
0700
6770
7FF0
7FF0
7810
0000
0000
0000
0000
ENDCHAR

STARTCHAR jisx0201_B5
ENCODING 181
SWIDTH 480 0
DWIDTH 12 0
BBX 12 24 0 -2
BITMAP
0000
03C0
03E0
01E0
01C0
61F0
7FF0
7FF0
7BD0
07E0
06E0
06E0
0EE0
0EE0
1EE0
1CE0
38E0
7EE0
77E0
03E0
01C0
0180
0000
0000
ENDCHAR

STARTCHAR jisx0201_B6
ENCODING 182
SWIDTH 480 0
DWIDTH 12 0
BBX 12 24 0 -2
BITMAP
0000
0F00
0F80
0780
0700
6770
7FF0
7FF0
6E70
0E70
0E70
0E70
1E70
1C70
1C70
3C70
38F0
3EE0
77E0
73E0
61C0
0180
0000
0000
ENDCHAR

STARTCHAR jisx0201_B7
ENCODING 183
SWIDTH 480 0
DWIDTH 12 0
BBX 12 24 0 -2
BITMAP
0000
0F00
0F80
0780
0770
66F0
7FF0
7F30
7700
0700
0770
67F0
7FF0
7F90
7B80
0380
0380
0380
0380
03C0
03C0
0380
0000
0000
ENDCHAR

STARTCHAR jisx0201_B8
ENCODING 184
SWIDTH 480 0
DWIDTH 12 0
BBX 12 24 0 -2
BITMAP
0000
1E00
1F00
0F00
0E70
1FF0
1FF0
1C70
3C70
3870
7870
70F0
60E0
00E0
01E0
01C0
03C0
0380
0780
0F00
1E00
1C00
0000
0000
ENDCHAR

STARTCHAR jisx0201_B9
ENCODING 185
SWIDTH 480 0
DWIDTH 12 0
BBX 12 24 0 -2
BITMAP
0000
3C00
3E00
1E00
1C00
1C70
1FF0
3FF0
39C0
39E0
71C0
71C0
61C0
01C0
03C0
0380
0380
0780
0700
0F00
1E00
1C00
0000
0000
ENDCHAR

STARTCHAR jisx0201_BA
ENCODING 186
SWIDTH 480 0
DWIDTH 12 0
BBX 12 24 0 -2
BITMAP
0000
0000
0000
0000
30E0
3FF0
3FF0
3CE0
00E0
00E0
00E0
00E0
00E0
00E0
00E0
00E0
30E0
3FF0
3FF0
3C00
0000
0000
0000
0000
ENDCHAR

STARTCHAR jisx0201_BB
ENCODING 187
SWIDTH 480 0
DWIDTH 12 0
BBX 12 24 0 -2
BITMAP
0000
03C0
3FE0
3DE0
1DC0
1DC0
5DF0
7FB0
7FF0
7DD0
1DC0
1DC0
1DC0
1DC0
1DC0
1DC0
01C0
03C0
0380
0780
0F00
0E00
0000
0000
ENDCHAR

STARTCHAR jisx0201_BC
ENCODING 188
SWIDTH 480 0
DWIDTH 12 0
BBX 12 24 0 -2
BITMAP
0000
0000
0000
3800
3C00
1E10
0E10
0E30
7030
7830
3C70
1C70
1CE0
01E0
01C0
03C0
1780
1F80
1F00
1E00
0C00
0000
0000
0000
ENDCHAR

STARTCHAR jisx0201_BD
ENCODING 189
SWIDTH 480 0
DWIDTH 12 0
BBX 12 24 0 -2
BITMAP
0000
0000
0000
18E0
1FF0
1FF0
1CE0
00E0
01E0
01C0
01C0
03C0
0380
07E0
06F0
0F70
0E70
1C30
3C30
7830
7030
0000
0000
0000
ENDCHAR

STARTCHAR jisx0201_BE
ENCODING 190
SWIDTH 480 0
DWIDTH 12 0
BBX 12 24 0 -2
BITMAP
0000
1E00
1F00
0F00
0E00
0E00
0E70
6FF0
7FF0
7E70
6EF0
0EE0
0FE0
0DC0
0F80
0E00
0E00
0E60
0FF0
0FF0
07F0
0000
0000
0000
ENDCHAR

STARTCHAR jisx0201_BF
ENCODING 191
SWIDTH 480 0
DWIDTH 12 0
BBX 12 24 0 -2
BITMAP
0000
0000
0000
00E0
70F0
7870
3C70
1C70
1C70
1C70
00F0
00E0
00E0
01E0
01C0
03C0
0380
0780
0F00
1E00
1C00
0000
0000
0000
ENDCHAR

STARTCHAR jisx0201_C0
ENCODING 192
SWIDTH 480 0
DWIDTH 12 0
BBX 12 24 0 -2
BITMAP
0000
1E00
1F00
0F00
0E70
0FF0
1FF0
1C70
3C70
38F0
7EE0
77E0
63E0
01C0
01F0
03F0
0770
0770
0F00
1E00
3C00
3800
0000
0000
ENDCHAR

STARTCHAR jisx0201_C1
ENCODING 193
SWIDTH 480 0
DWIDTH 12 0
BBX 12 24 0 -2
BITMAP
0000
01E0
01F0
02F0
3FC0
3F80
03C0
0380
63F0
7F70
7FF0
7B90
0380
0380
0380
0380
0780
0700
0F00
1E00
3C00
3800
0000
0000
ENDCHAR

STARTCHAR jisx0201_C2
ENCODING 194
SWIDTH 480 0
DWIDTH 12 0
BBX 12 24 0 -2
BITMAP
0000
0000
0000
0CE0
6EF0
7F70
7770
3770
3F70
3870
00F0
00E0
00E0
01E0
01C0
03C0
0380
0780
0F00
1E00
1C00
0000
0000
0000
ENDCHAR

STARTCHAR jisx0201_C3
ENCODING 195
SWIDTH 480 0
DWIDTH 12 0
BBX 12 24 0 -2
BITMAP
0000
0000
30F0
3FF0
3FF0
3C00
0000
6070
7FF0
7FF0
7B90
03C0
0380
0380
0380
0380
0780
0700
0F00
1E00
3C00
3800
0000
0000
ENDCHAR

STARTCHAR jisx0201_C4
ENCODING 196
SWIDTH 480 0
DWIDTH 12 0
BBX 12 24 0 -2
BITMAP
0000
1E00
1F00
0F00
0E00
0E00
0E00
0E00
0F80
0FE0
0DF0
0EF0
0E70
0E70
0E00
0E00
0E00
0E00
0E00
1E00
1E00
0E00
0000
0000
ENDCHAR

STARTCHAR jisx0201_C5
ENCODING 197
SWIDTH 480 0
DWIDTH 12 0
BBX 12 24 0 -2
BITMAP
0000
0780
07C0
03C0
0380
0380
63B0
7FF0
7FF0
7B90
0380
0380
0380
0380
0380
0380
0780
0700
0F00
1E00
3C00
3800
0000
0000
ENDCHAR

STARTCHAR jisx0201_C6
ENCODING 198
SWIDTH 480 0
DWIDTH 12 0
BBX 12 24 0 -2
BITMAP
0000
0000
0000
0000
19C0
1FC0
1FC0
0F80
0000
0000
0000
0000
0000
0000
0000
60F0
7FF0
7FF0
7830
0000
0000
0000
0000
0000
ENDCHAR

STARTCHAR jisx0201_C7
ENCODING 199
SWIDTH 480 0
DWIDTH 12 0
BBX 12 24 0 -2
BITMAP
0000
0000
0000
30E0
3FF0
3FF0
3CE0
00E0
00E0
1DE0
1DC0
0FC0
07C0
0380
07E0
06F0
0EF0
1E70
3C70
7800
7000
0000
0000
0000
ENDCHAR

STARTCHAR jisx0201_C8
ENCODING 200
SWIDTH 480 0
DWIDTH 12 0
BBX 12 24 0 -2
BITMAP
0700
0780
0380
0380
1860
1FF0
1FF0
1CE0
01E0
01C0
03C0
0780
0FE0
1FF0
3B70
7BB0
73B0
0380
0380
0780
0780
0380
0000
0000
ENDCHAR

STARTCHAR jisx0201_C9
ENCODING 201
SWIDTH 480 0
DWIDTH 12 0
BBX 12 24 0 -2
BITMAP
0000
0000
0000
01C0
01E0
00F0
00F0
00E0
01E0
01C0
01C0
03C0
0380
0780
0700
0F00
1E00
1C00
3C00
7800
7000
0000
0000
0000
ENDCHAR

STARTCHAR jisx0201_CA
ENCODING 202
SWIDTH 480 0
DWIDTH 12 0
BBX 12 24 0 -2
BITMAP
0000
0000
0000
0000
1EC0
1EE0
0EE0
0E70
0E70
0E70
0E70
1E30
1C30
1C30
1C30
3C30
3830
7830
7030
6000
0000
0000
0000
0000
ENDCHAR

STARTCHAR jisx0201_CB
ENCODING 203
SWIDTH 480 0
DWIDTH 12 0
BBX 12 24 0 -2
BITMAP
0000
0000
3C00
3E00
1E00
1DE0
1DF0
1CF0
1FE0
1BC0
1F00
1C00
1C00
1C00
1C00
1C00
1C00
1C60
1FF0
1FF0
0FF0
0000
0000
0000
ENDCHAR

STARTCHAR jisx0201_CC
ENCODING 204
SWIDTH 480 0
DWIDTH 12 0
BBX 12 24 0 -2
BITMAP
0000
0000
0000
60E0
7FF0
7FF0
78E0
00E0
00E0
00E0
00E0
00E0
01E0
01C0
01C0
03C0
0380
0780
0F00
1E00
1C00
0000
0000
0000
ENDCHAR

STARTCHAR jisx0201_CD
ENCODING 205
SWIDTH 480 0
DWIDTH 12 0
BBX 12 24 0 -2
BITMAP
0000
0000
0000
0000
0000
0600
0F00
0F00
1B80
5B80
79C0
79C0
78E0
30F0
0070
0070
0070
0030
0030
0000
0000
0000
0000
0000
ENDCHAR

STARTCHAR jisx0201_CE
ENCODING 206
SWIDTH 480 0
DWIDTH 12 0
BBX 12 24 0 -2
BITMAP
0000
0780
07C0
03C0
0380
33F0
3F70
3FF0
3B90
0380
1BE0
1B70
1BF0
3BB0
7BB0
7BB0
73B0
0B80
0F80
0780
0380
0300
0000
0000
ENDCHAR

STARTCHAR jisx0201_CF
ENCODING 207
SWIDTH 480 0
DWIDTH 12 0
BBX 12 24 0 -2
BITMAP
0000
0000
0000
6070
7FF0
7FF0
7870
0070
00F0
00E0
00E0
19E0
1DC0
1FC0
0B80
0F00
0700
0780
0380
0380
0380
0000
0000
0000
ENDCHAR

STARTCHAR jisx0201_D0
ENCODING 208
SWIDTH 480 0
DWIDTH 12 0
BBX 12 24 0 -2
BITMAP
0000
0000
0000
1F00
1FC0
07C0
01C0
0000
0000
1F00
1FC0
07C0
01C0
0000
0000
3C00
3F80
0FE0
03F0
00F0
0070
0000
0000
0000
ENDCHAR

STARTCHAR jisx0201_D1
ENCODING 209
SWIDTH 480 0
DWIDTH 12 0
BBX 12 24 0 -2
BITMAP
0000
0000
0E00
0F00
0780
0780
0700
0700
0700
0E00
0E00
0EC0
0EE0
0CF0
1C70
1C70
59B0
7FF0
7FB0
7C30
3030
0000
0000
0000
ENDCHAR

STARTCHAR jisx0201_D2
ENCODING 210
SWIDTH 480 0
DWIDTH 12 0
BBX 12 24 0 -2
BITMAP
0000
0000
01C0
01E0
00F0
00F0
00E0
01E0
39C0
3DC0
1FC0
0780
03E0
07F0
06F0
0F70
0E70
1E00
3C00
7800
7000
0000
0000
0000
ENDCHAR

STARTCHAR jisx0201_D3
ENCODING 211
SWIDTH 480 0
DWIDTH 12 0
BBX 12 24 0 -2
BITMAP
0000
0000
30F0
3FF0
3FF0
3730
0780
0700
0700
6770
7FF0
7FF0
7710
0700
0700
0700
0700
0760
07F0
07F0
03F0
0000
0000
0000
ENDCHAR

STARTCHAR jisx0201_D4
ENCODING 212
SWIDTH 480 0
DWIDTH 12 0
BBX 12 24 0 -2
BITMAP
0000
1E00
1F00
0F00
0E00
0E70
6FF0
7FF0
7E70
6EF0
0EE0
0FE0
0DC0
0F80
0E00
0700
0700
0700
0700
0700
0700
0700
0000
0000
ENDCHAR

STARTCHAR jisx0201_D5
ENCODING 213
SWIDTH 480 0
DWIDTH 12 0
BBX 12 24 0 -2
BITMAP
0000
0000
0000
0000
30E0
3FF0
3FF0
3CE0
00E0
00E0
00E0
01E0
01C0
01C0
01C0
01C0
61F0
7FF0
7FF0
7810
0000
0000
0000
0000
ENDCHAR

STARTCHAR jisx0201_D6
ENCODING 214
SWIDTH 480 0
DWIDTH 12 0
BBX 12 24 0 -2
BITMAP
0000
0000
0000
3070
3FF0
3FF0
3C70
0070
0070
3070
3FF0
3FF0
3CE0
00E0
00E0
00E0
30E0
3FF0
3FF0
3C30
0000
0000
0000
0000
ENDCHAR

STARTCHAR jisx0201_D7
ENCODING 215
SWIDTH 480 0
DWIDTH 12 0
BBX 12 24 0 -2
BITMAP
0000
0000
18E0
1FE0
1FE0
0FC0
0000
6070
7FF0
7FF0
3C70
0070
0070
00F0
00E0
00E0
01E0
01C0
03C0
0780
0F00
0E00
0000
0000
ENDCHAR

STARTCHAR jisx0201_D8
ENCODING 216
SWIDTH 480 0
DWIDTH 12 0
BBX 12 24 0 -2
BITMAP
0000
0000
01E0
3DF0
3EF0
1EE0
1CE0
1CE0
1CE0
1CE0
1CE0
1CE0
1CE0
1CE0
1CE0
00E0
01E0
01C0
03C0
0780
0F00
0E00
0000
0000
ENDCHAR

STARTCHAR jisx0201_D9
ENCODING 217
SWIDTH 480 0
DWIDTH 12 0
BBX 12 24 0 -2
BITMAP
0000
0000
0780
07C0
3BC0
3B80
1B80
1B80
1B80
1B90
1B90
1B90
1BB0
1BB0
1BB0
3BF0
3B70
3BE0
73E0
73C0
6180
0000
0000
0000
ENDCHAR

STARTCHAR jisx0201_DA
ENCODING 218
SWIDTH 480 0
DWIDTH 12 0
BBX 12 24 0 -2
BITMAP
0000
0000
3C00
3E00
1E00
1C00
1C00
1C00
1C00
1C10
1C10
1C30
1C70
1C70
1CF0
1DE0
1FC0
1BC0
3F80
3F00
1E00
0C00
0000
0000
ENDCHAR

STARTCHAR jisx0201_DB
ENCODING 219
SWIDTH 480 0
DWIDTH 12 0
BBX 12 24 0 -2
BITMAP
0000
0000
0000
0000
7070
7FF0
3FF0
3870
3870
3870
3870
3870
38F0
38E0
38E0
38E0
38E0
3FF0
3FF0
3800
0000
0000
0000
0000
ENDCHAR

STARTCHAR jisx0201_DC
ENCODING 220
SWIDTH 480 0
DWIDTH 12 0
BBX 12 24 0 -2
BITMAP
0000
0000
7070
7FF0
3FF0
3870
3870
3870
3870
3870
3870
3870
3870
00F0
00E0
00E0
01E0
01C0
03C0
0780
0F00
0E00
0000
0000
ENDCHAR

STARTCHAR jisx0201_DD
ENCODING 221
SWIDTH 480 0
DWIDTH 12 0
BBX 12 24 0 -2
BITMAP
0000
0000
0000
3800
3C00
1E10
0E10
0E30
0E30
0030
0070
0070
00E0
01E0
01C0
03C0
1780
1F80
1F00
1E00
0C00
0000
0000
0000
ENDCHAR

STARTCHAR jisx0201_DE
ENCODING 222
SWIDTH 480 0
DWIDTH 12 0
BBX 12 24 0 -2
BITMAP
1800
1C00
7C00
6C00
7000
3000
0000
0000
0000
0000
0000
0000
0000
0000
0000
0000
0000
0000
0000
0000
0000
0000
0000
0000
ENDCHAR

STARTCHAR jisx0201_DF
ENCODING 223
SWIDTH 480 0
DWIDTH 12 0
BBX 12 24 0 -2
BITMAP
3800
7C00
6C00
7C00
3800
0000
0000
0000
0000
0000
0000
0000
0000
0000
0000
0000
0000
0000
0000
0000
0000
0000
0000
0000
ENDCHAR

STARTCHAR onx224
ENCODING 224
SWIDTH 500 0
DWIDTH 12 0
BBX 12 24 0 -2
BITMAP
0000
0000
7E00
4000
4000
4000
7C00
4000
4000
4000
7E00
0000
03C0
0420
0420
0420
0420
0420
0420
0420
03C0
0000
0000
0000
ENDCHAR

STARTCHAR onx225
ENCODING 225
SWIDTH 500 0
DWIDTH 12 0
BBX 12 24 0 -2
BITMAP
0000
0000
7E00
4000
4000
4000
7C00
4000
4000
4000
7E00
0000
0080
0180
0280
0080
0080
0080
0080
0080
03E0
0000
0000
0000
ENDCHAR

STARTCHAR onx226
ENCODING 226
SWIDTH 500 0
DWIDTH 12 0
BBX 12 24 0 -2
BITMAP
0000
0000
7E00
4000
4000
4000
7C00
4000
4000
4000
7E00
0000
03C0
0420
0420
0040
0080
0100
0200
0400
07E0
0000
0000
0000
ENDCHAR

STARTCHAR onx227
ENCODING 227
SWIDTH 500 0
DWIDTH 12 0
BBX 12 24 0 -2
BITMAP
0000
0000
7E00
4000
4000
4000
7C00
4000
4000
4000
7E00
0000
03C0
0420
0020
0020
01C0
0020
0020
0420
03C0
0000
0000
0000
ENDCHAR

STARTCHAR onx228
ENCODING 228
SWIDTH 500 0
DWIDTH 12 0
BBX 12 24 0 -2
BITMAP
0000
0000
7E00
4000
4000
4000
7C00
4000
4000
4000
7E00
0000
0080
0180
0280
0480
0880
0880
0FC0
0080
0080
0000
0000
0000
ENDCHAR

STARTCHAR onx229
ENCODING 229
SWIDTH 500 0
DWIDTH 12 0
BBX 12 24 0 -2
BITMAP
0000
0000
7E00
4000
4000
4000
7C00
4000
4000
4000
7E00
0000
07E0
0400
0400
0400
07C0
0020
0020
0420
03C0
0000
0000
0000
ENDCHAR

STARTCHAR onx230
ENCODING 230
SWIDTH 500 0
DWIDTH 12 0
BBX 12 24 0 -2
BITMAP
0000
0000
7E00
4000
4000
4000
7C00
4000
4000
4000
7E00
0000
03C0
0420
0400
0400
07C0
0420
0420
0420
03C0
0000
0000
0000
ENDCHAR

STARTCHAR onx231
ENCODING 231
SWIDTH 500 0
DWIDTH 12 0
BBX 12 24 0 -2
BITMAP
0000
0000
7E00
4000
4000
4000
7C00
4000
4000
4000
7E00
0000
07E0
0020
0040
0040
0080
0080
0100
0100
0100
0000
0000
0000
ENDCHAR

STARTCHAR onx232
ENCODING 232
SWIDTH 500 0
DWIDTH 12 0
BBX 12 24 0 -2
BITMAP
0000
0000
7E00
4000
4000
4000
7C00
4000
4000
4000
7E00
0000
03C0
0420
0420
0420
03C0
0420
0420
0420
03C0
0000
0000
0000
ENDCHAR

STARTCHAR onx233
ENCODING 233
SWIDTH 500 0
DWIDTH 12 0
BBX 12 24 0 -2
BITMAP
0000
0000
7E00
4000
4000
4000
7C00
4000
4000
4000
7E00
0000
03C0
0420
0420
0420
03E0
0020
0020
0420
03C0
0000
0000
0000
ENDCHAR

STARTCHAR onx234
ENCODING 234
SWIDTH 500 0
DWIDTH 12 0
BBX 12 24 0 -2
BITMAP
0000
0000
7E00
4000
4000
4000
7C00
4000
4000
4000
7E00
0000
0180
0180
0240
0240
0420
07E0
0420
0420
0420
0000
0000
0000
ENDCHAR

STARTCHAR onx235
ENCODING 235
SWIDTH 500 0
DWIDTH 12 0
BBX 12 24 0 -2
BITMAP
0000
0000
7E00
4000
4000
4000
7C00
4000
4000
4000
7E00
0000
07C0
0220
0220
0220
03C0
0220
0220
0220
07C0
0000
0000
0000
ENDCHAR

STARTCHAR onx236
ENCODING 236
SWIDTH 500 0
DWIDTH 12 0
BBX 12 24 0 -2
BITMAP
0000
0000
7E00
4000
4000
4000
7C00
4000
4000
4000
7E00
0000
03C0
0420
0420
0400
0400
0400
0400
0420
03C0
0000
0000
0000
ENDCHAR

STARTCHAR onx237
ENCODING 237
SWIDTH 500 0
DWIDTH 12 0
BBX 12 24 0 -2
BITMAP
0000
0000
7E00
4000
4000
4000
7C00
4000
4000
4000
7E00
0000
0780
0440
0420
0420
0420
0420
0420
0440
0780
0000
0000
0000
ENDCHAR

STARTCHAR onx238
ENCODING 238
SWIDTH 500 0
DWIDTH 12 0
BBX 12 24 0 -2
BITMAP
0000
0000
7E00
4000
4000
4000
7C00
4000
4000
4000
7E00
0000
07E0
0400
0400
0400
07C0
0400
0400
0400
07E0
0000
0000
0000
ENDCHAR

STARTCHAR onx239
ENCODING 239
SWIDTH 500 0
DWIDTH 12 0
BBX 12 24 0 -2
BITMAP
0000
0000
7E00
4000
4000
4000
7C00
4000
4000
4000
7E00
0000
07E0
0400
0400
0400
07C0
0400
0400
0400
0400
0000
0000
0000
ENDCHAR

STARTCHAR onx240
ENCODING 240
SWIDTH 500 0
DWIDTH 12 0
BBX 12 24 0 -2
BITMAP
0000
0000
7E00
4000
4000
4000
7C00
4000
4000
4000
4000
0000
03C0
0420
0420
0420
0420
0420
0420
0420
03C0
0000
0000
0000
ENDCHAR

STARTCHAR onx241
ENCODING 241
SWIDTH 500 0
DWIDTH 12 0
BBX 12 24 0 -2
BITMAP
0000
0000
7E00
4000
4000
4000
7C00
4000
4000
4000
4000
0000
0080
0180
0280
0080
0080
0080
0080
0080
03E0
0000
0000
0000
ENDCHAR

STARTCHAR onx242
ENCODING 242
SWIDTH 500 0
DWIDTH 12 0
BBX 12 24 0 -2
BITMAP
0000
0000
7E00
4000
4000
4000
7C00
4000
4000
4000
4000
0000
03C0
0420
0420
0040
0080
0100
0200
0400
07E0
0000
0000
0000
ENDCHAR

STARTCHAR onx243
ENCODING 243
SWIDTH 500 0
DWIDTH 12 0
BBX 12 24 0 -2
BITMAP
0000
0000
7E00
4000
4000
4000
7C00
4000
4000
4000
4000
0000
03C0
0420
0020
0020
01C0
0020
0020
0420
03C0
0000
0000
0000
ENDCHAR

STARTCHAR onx244
ENCODING 244
SWIDTH 500 0
DWIDTH 12 0
BBX 12 24 0 -2
BITMAP
0000
0000
7E00
4000
4000
4000
7C00
4000
4000
4000
4000
0000
0080
0180
0280
0480
0880
0880
0FC0
0080
0080
0000
0000
0000
ENDCHAR

STARTCHAR onx245
ENCODING 245
SWIDTH 500 0
DWIDTH 12 0
BBX 12 24 0 -2
BITMAP
0000
0000
7E00
4000
4000
4000
7C00
4000
4000
4000
4000
0000
07E0
0400
0400
0400
07C0
0020
0020
0420
03C0
0000
0000
0000
ENDCHAR

STARTCHAR onx246
ENCODING 246
SWIDTH 500 0
DWIDTH 12 0
BBX 12 24 0 -2
BITMAP
0000
0000
7E00
4000
4000
4000
7C00
4000
4000
4000
4000
0000
03C0
0420
0400
0400
07C0
0420
0420
0420
03C0
0000
0000
0000
ENDCHAR

STARTCHAR onx247
ENCODING 247
SWIDTH 500 0
DWIDTH 12 0
BBX 12 24 0 -2
BITMAP
0000
0000
7E00
4000
4000
4000
7C00
4000
4000
4000
4000
0000
07E0
0020
0040
0040
0080
0080
0100
0100
0100
0000
0000
0000
ENDCHAR

STARTCHAR onx248
ENCODING 248
SWIDTH 500 0
DWIDTH 12 0
BBX 12 24 0 -2
BITMAP
0000
0000
7E00
4000
4000
4000
7C00
4000
4000
4000
4000
0000
03C0
0420
0420
0420
03C0
0420
0420
0420
03C0
0000
0000
0000
ENDCHAR

STARTCHAR onx249
ENCODING 249
SWIDTH 500 0
DWIDTH 12 0
BBX 12 24 0 -2
BITMAP
0000
0000
7E00
4000
4000
4000
7C00
4000
4000
4000
4000
0000
03C0
0420
0420
0420
03E0
0020
0020
0420
03C0
0000
0000
0000
ENDCHAR

STARTCHAR onx250
ENCODING 250
SWIDTH 500 0
DWIDTH 12 0
BBX 12 24 0 -2
BITMAP
0000
0000
7E00
4000
4000
4000
7C00
4000
4000
4000
4000
0000
0180
0180
0240
0240
0420
07E0
0420
0420
0420
0000
0000
0000
ENDCHAR

STARTCHAR onx251
ENCODING 251
SWIDTH 500 0
DWIDTH 12 0
BBX 12 24 0 -2
BITMAP
0000
0000
7E00
4000
4000
4000
7C00
4000
4000
4000
4000
0000
07C0
0220
0220
0220
03C0
0220
0220
0220
07C0
0000
0000
0000
ENDCHAR

STARTCHAR onx252
ENCODING 252
SWIDTH 500 0
DWIDTH 12 0
BBX 12 24 0 -2
BITMAP
0000
0000
7E00
4000
4000
4000
7C00
4000
4000
4000
4000
0000
03C0
0420
0420
0400
0400
0400
0400
0420
03C0
0000
0000
0000
ENDCHAR

STARTCHAR onx253
ENCODING 253
SWIDTH 500 0
DWIDTH 12 0
BBX 12 24 0 -2
BITMAP
0000
0000
7E00
4000
4000
4000
7C00
4000
4000
4000
4000
0000
0780
0440
0420
0420
0420
0420
0420
0440
0780
0000
0000
0000
ENDCHAR

STARTCHAR onx254
ENCODING 254
SWIDTH 500 0
DWIDTH 12 0
BBX 12 24 0 -2
BITMAP
0000
0000
7E00
4000
4000
4000
7C00
4000
4000
4000
4000
0000
07E0
0400
0400
0400
07C0
0400
0400
0400
07E0
0000
0000
0000
ENDCHAR

STARTCHAR onx255
ENCODING 255
SWIDTH 500 0
DWIDTH 12 0
BBX 12 24 0 -2
BITMAP
0000
0000
7E00
4000
4000
4000
7C00
4000
4000
4000
4000
0000
0FC0
0800
0800
0800
0F80
0800
0800
0800
0800
0000
0000
0000
ENDCHAR
ENDFONT
